<?xml version="1.0" encoding="UTF-8"?>
<!DOCTYPE svg PUBLIC "-//W3C//DTD SVG 1.1//EN" "http://www.w3.org/Graphics/SVG/1.1/DTD/svg11.dtd">
<!-- Creator: CorelDRAW -->
<svg xmlns="http://www.w3.org/2000/svg" xml:space="preserve" width="96.2mm" height="96.2mm" version="1.1" style="shape-rendering:geometricPrecision; text-rendering:geometricPrecision; image-rendering:optimizeQuality; fill-rule:evenodd; clip-rule:evenodd"
viewBox="0 0 716.13 716.13"
 xmlns:xlink="http://www.w3.org/1999/xlink"
 xmlns:xodm="http://www.corel.com/coreldraw/odm/2003">
 <defs>
  <style type="text/css">
   <![CDATA[
    .str1 {stroke:black;stroke-width:1.49;stroke-miterlimit:22.9256}
    .str0 {stroke:#FEE673;stroke-width:1.49;stroke-miterlimit:22.9256}
    .fil1 {fill:black}
    .fil0 {fill:#FEE673}
    .fil2 {fill:black;fill-rule:nonzero}
   ]]>
  </style>
 </defs>
 <g id="Слой_x0020_1">
  <metadata id="CorelCorpID_0Corel-Layer"/>
  <circle class="fil0 str0" cx="358.07" cy="358.07" r="357.32"/>
  <rect class="fil1 str1" x="144.62" y="538.1" width="427.39" height="36.49" rx="73.57" ry="74.44"/>
  <path class="fil2 str1" d="M192.33 496.33c-15.78,-18.89 -28.4,-40.57 -37.04,-64.2 -8.48,-23.18 -13.11,-48.13 -13.11,-74.06 0,-59.61 24.16,-113.58 63.23,-152.65 39.07,-39.07 93.04,-63.23 152.65,-63.23 59.61,0 113.58,24.16 152.65,63.23 39.07,39.07 63.23,93.04 63.23,152.65 0,25.93 -4.63,50.88 -13.11,74.06 -8.64,23.63 -21.27,45.3 -37.04,64.2 -3.39,4.61 -8.85,7.61 -15.01,7.61 -10.28,0 -18.61,-8.33 -18.61,-18.61 0,-5 1.97,-9.53 5.17,-12.87 13.06,-15.65 23.49,-33.54 30.6,-52.97 6.97,-19.07 10.78,-39.75 10.78,-61.41 0,-49.34 -20,-94 -52.33,-126.33 -32.33,-32.33 -77,-52.33 -126.33,-52.33 -49.34,0 -94,20 -126.33,52.33 -32.33,32.33 -52.33,77 -52.33,126.33 0,21.67 3.81,42.35 10.78,61.41 7.11,19.44 17.54,37.32 30.6,52.97 3.2,3.34 5.17,7.88 5.17,12.87 0,10.28 -8.33,18.61 -18.61,18.61 -6.16,0 -11.62,-3 -15.01,-7.61z"/>
  <path class="fil2 str1" d="M335.46 368.88l0 32.25 41.55 0c6.53,0 11.87,5.34 11.87,11.87l0 0c0,6.53 -5.34,11.87 -11.87,11.87l-41.55 0 0 26.91c0,6.53 -6.19,11.87 -13.76,11.87l-0 0c-7.57,0 -13.76,-5.34 -13.76,-11.87l0 -26.91 -22.79 0c-6.53,0 -11.87,-5.34 -11.87,-11.87l0 -0c0,-6.53 5.34,-11.87 11.87,-11.87l22.79 0 0 -32.25 -22.79 0 -1.48 0 0 -0.09c-5.84,-0.73 -10.4,-5.75 -10.4,-11.78l0 -0c0,-6.03 4.56,-11.05 10.4,-11.78l0 -0.09 1.48 0 22.79 0 0 -91.52 64.93 0c18.59,0 32.63,1.88 42.14,5.65 9.61,3.67 17.28,10.23 23.03,19.65 5.74,9.46 8.64,19.89 8.64,31.28 0,11.49 -2.12,21.05 -6.37,28.58 -4.25,7.53 -9.85,13.56 -16.9,18.01 -7,4.49 -15.06,7.63 -24.14,9.41 -9.12,1.79 -18.49,2.7 -28.19,2.7l-35.63 0zm35.58 -23.75c6.28,0 12.31,-0.48 18.05,-1.5 5.74,-0.97 10.77,-2.8 15.11,-5.45 4.3,-2.61 7.72,-6.18 10.28,-10.67 2.56,-4.49 3.81,-10.28 3.81,-17.33 0,-6.13 -1.16,-11.34 -3.48,-15.59 -2.27,-4.25 -5.46,-7.68 -9.41,-10.38 -4.01,-2.7 -8.69,-4.63 -14.05,-5.89 -5.36,-1.21 -11.15,-1.83 -17.38,-1.83l-38.52 0 0 68.64 35.58 0z"/>
 </g>
</svg>
