<?xml version="1.0" encoding="UTF-8"?>
<!DOCTYPE svg PUBLIC "-//W3C//DTD SVG 1.1//EN" "http://www.w3.org/Graphics/SVG/1.1/DTD/svg11.dtd">
<!-- Creator: CorelDRAW -->
<svg xmlns="http://www.w3.org/2000/svg" xml:space="preserve" width="345.555mm" height="345.555mm" version="1.1" style="shape-rendering:geometricPrecision; text-rendering:geometricPrecision; image-rendering:optimizeQuality; fill-rule:evenodd; clip-rule:evenodd"
viewBox="0 0 2728.18 2728.18"
 xmlns:xlink="http://www.w3.org/1999/xlink"
 xmlns:xodm="http://www.corel.com/coreldraw/odm/2003">
 <defs>
  <style type="text/css">
   <![CDATA[
    .str0 {stroke:#FEE673;stroke-width:1.58;stroke-miterlimit:22.9256}
    .fil0 {fill:#FEE673}
    .fil1 {fill:#2B2A29;fill-rule:nonzero}
   ]]>
  </style>
 </defs>
 <g id="Слой_x0020_1">
  <metadata id="CorelCorpID_0Corel-Layer"/>
  <circle class="fil0 str0" cx="1364.09" cy="1364.09" r="1363.3"/>
  <path class="fil1" d="M630.43 1456.31l0 218.53 -128.06 0 0 -621.49 242.42 0c46.62,0 87.7,8.6 123.1,25.64 35.4,17.04 62.64,41.37 81.73,72.84 19.08,31.47 28.55,67.31 28.55,107.52 0,60.9 -20.83,108.97 -62.5,144.23 -41.67,35.11 -99.36,52.74 -173.07,52.74l-112.18 0zm0 -104.02l114.36 0c33.8,0 59.58,-8.01 77.5,-23.89 17.77,-15.88 26.66,-38.61 26.66,-68.18 0,-30.45 -9.03,-55.07 -26.95,-73.86 -17.92,-18.79 -42.69,-28.41 -74.3,-28.99l-117.28 0 0 194.93zm920 143.21l83.62 -442.15 127.62 0 -137.82 621.49 -128.93 0 -101.25 -415.79 -101.11 415.79 -128.93 0 -137.82 -621.49 127.62 0 84.06 441.43 102.42 -441.43 108.39 0 102.13 442.15zm612.6 51.72l-224.5 0 -42.69 127.62 -136.07 0 231.2 -621.49 118.73 0 232.66 621.49 -136.22 0 -43.12 -127.62zm-189.97 -104.02l155.45 0 -78.09 -232.8 -77.36 232.8z"/>
 </g>
</svg>
