<?xml version="1.0" encoding="UTF-8"?>
<!DOCTYPE svg PUBLIC "-//W3C//DTD SVG 1.1//EN" "http://www.w3.org/Graphics/SVG/1.1/DTD/svg11.dtd">
<!-- Creator: CorelDRAW -->
<svg xmlns="http://www.w3.org/2000/svg" xml:space="preserve" width="345.355mm" height="345.355mm" version="1.1" style="shape-rendering:geometricPrecision; text-rendering:geometricPrecision; image-rendering:optimizeQuality; fill-rule:evenodd; clip-rule:evenodd"
viewBox="0 0 3455.94 3455.94"
 xmlns:xlink="http://www.w3.org/1999/xlink"
 xmlns:xodm="http://www.corel.com/coreldraw/odm/2003">
 <defs>
  <style type="text/css">
   <![CDATA[
    .fil0 {fill:#FEE673}
    .fil1 {fill:black;fill-rule:nonzero}
   ]]>
  </style>
 </defs>
 <g id="Слой_x0020_1">
  <metadata id="CorelCorpID_0Corel-Layer"/>
  <circle class="fil0" cx="1727.97" cy="1727.97" r="1727.97"/>
  <path class="fil1" d="M1728.49 2478.49c-46.96,0 -86.97,-17.57 -120.36,-52.34 -33.4,-35.14 -49.75,-77.23 -49.75,-126.64l0 -714.1c0,-50.14 16.35,-92.6 49.75,-127.01 33.4,-34.77 73.4,-51.97 120.36,-51.97 46.96,0 86.62,17.2 119.67,51.97 33.05,34.41 49.4,76.86 49.4,127.01l0 714.1c0,49.41 -16.35,91.5 -49.4,126.64 -33.05,34.77 -72.71,52.34 -119.67,52.34zm169.07 -1323.15c0,49.41 -16.7,91.5 -49.75,126.64 -33.4,34.77 -73.05,52.34 -119.32,52.34 -46.96,0 -86.97,-17.57 -120.36,-52.34 -33.4,-35.14 -49.75,-77.23 -49.75,-126.64 0,-49.41 16.35,-91.14 49.75,-125.91 33.4,-34.77 73.4,-51.97 120.36,-51.97 46.27,0 85.93,17.2 119.32,51.97 33.05,34.77 49.75,76.5 49.75,125.91z"/>
 </g>
</svg>
